<svg width="500" height="300" xmlns="http://www.w3.org/2000/svg" xmlns:xlink="http://www.w3.org/1999/xlink" id="svg3337" overflow="hidden"><defs id="defs3339"><linearGradient x1="13.0835" y1="60.5835" x2="54.0835" y2="60.5835" gradientUnits="userSpaceOnUse" id="XMLID_2_"><stop offset="0" stop-color="#9E9E9E"/><stop offset="1" stop-color="#616161"/></linearGradient><linearGradient x1="29.606" y1="58.4976" x2="37.811" y2="58.4976" gradientUnits="userSpaceOnUse" id="XMLID_3_"><stop offset="0" stop-color="#9E9E9E"/><stop offset="1" stop-color="#616161"/></linearGradient><linearGradient x1="3.792" y1="49.8335" x2="65.6665" y2="49.8335" gradientUnits="userSpaceOnUse" id="XMLID_4_"><stop offset="0" stop-color="#9E9E9E"/><stop offset="1" stop-color="#616161"/></linearGradient><linearGradient x1="6.2192" y1="-2.2808" x2="64.2807" y2="55.7807" gradientUnits="userSpaceOnUse" id="XMLID_5_"><stop offset="0" stop-color="#636363"/><stop offset="1"/></linearGradient><linearGradient x1="59.3442" y1="50.8433" x2="11.1574" y2="2.6564" gradientUnits="userSpaceOnUse" id="XMLID_6_"><stop offset="0" stop-color="#FFFFFF"/><stop offset="1" stop-color="#ADADAD"/></linearGradient><linearGradient x1="13.0835" y1="60.5835" x2="54.0835" y2="60.5835" gradientUnits="userSpaceOnUse" id="linearGradient3380"><stop offset="0" stop-color="#9E9E9E"/><stop offset="1" stop-color="#616161"/></linearGradient><linearGradient x1="29.606" y1="58.4976" x2="37.811" y2="58.4976" gradientUnits="userSpaceOnUse" id="linearGradient3387"><stop offset="0" stop-color="#9E9E9E"/><stop offset="1" stop-color="#616161"/></linearGradient><linearGradient x1="3.792" y1="49.8335" x2="65.6665" y2="49.8335" gradientUnits="userSpaceOnUse" id="linearGradient3394"><stop offset="0" stop-color="#9E9E9E"/><stop offset="1" stop-color="#616161"/></linearGradient><linearGradient x1="6.2192" y1="-2.2808" x2="64.2807" y2="55.7807" gradientUnits="userSpaceOnUse" id="linearGradient3401"><stop offset="0" stop-color="#636363"/><stop offset="1"/></linearGradient><linearGradient x1="59.3442" y1="50.8433" x2="11.1574" y2="2.6564" gradientUnits="userSpaceOnUse" id="linearGradient3408"><stop offset="0" stop-color="#FFFFFF"/><stop offset="1" stop-color="#ADADAD"/></linearGradient><linearGradient x1="13.0835" y1="60.5835" x2="54.0835" y2="60.5835" gradientUnits="userSpaceOnUse" id="XMLID_2_-4"><stop offset="0" stop-color="#9E9E9E"/><stop offset="1" stop-color="#616161"/></linearGradient><linearGradient x1="29.606" y1="58.4976" x2="37.811" y2="58.4976" gradientUnits="userSpaceOnUse" id="XMLID_3_-3"><stop offset="0" stop-color="#9E9E9E"/><stop offset="1" stop-color="#616161"/></linearGradient><linearGradient x1="3.792" y1="49.8335" x2="65.6665" y2="49.8335" gradientUnits="userSpaceOnUse" id="XMLID_4_-6"><stop offset="0" stop-color="#9E9E9E"/><stop offset="1" stop-color="#616161"/></linearGradient><linearGradient x1="6.2192" y1="-2.2808" x2="64.2807" y2="55.7807" gradientUnits="userSpaceOnUse" id="XMLID_5_-7"><stop offset="0" stop-color="#636363"/><stop offset="1"/></linearGradient><linearGradient x1="59.3442" y1="50.8433" x2="11.1574" y2="2.6564" gradientUnits="userSpaceOnUse" id="XMLID_6_-7"><stop offset="0" stop-color="#FFFFFF"/><stop offset="1" stop-color="#ADADAD"/></linearGradient><linearGradient x1="13.0835" y1="60.5835" x2="54.0835" y2="60.5835" gradientUnits="userSpaceOnUse" id="linearGradient3380-8"><stop offset="0" stop-color="#9E9E9E"/><stop offset="1" stop-color="#616161"/></linearGradient><linearGradient x1="29.606" y1="58.4976" x2="37.811" y2="58.4976" gradientUnits="userSpaceOnUse" id="linearGradient3387-8"><stop offset="0" stop-color="#9E9E9E"/><stop offset="1" stop-color="#616161"/></linearGradient><linearGradient x1="3.792" y1="49.8335" x2="65.6665" y2="49.8335" gradientUnits="userSpaceOnUse" id="linearGradient3394-3"><stop offset="0" stop-color="#9E9E9E"/><stop offset="1" stop-color="#616161"/></linearGradient><linearGradient x1="6.2192" y1="-2.2808" x2="64.2807" y2="55.7807" gradientUnits="userSpaceOnUse" id="linearGradient3401-4"><stop offset="0" stop-color="#636363"/><stop offset="1"/></linearGradient><linearGradient x1="59.3442" y1="50.8433" x2="11.1574" y2="2.6564" gradientUnits="userSpaceOnUse" id="linearGradient3408-9"><stop offset="0" stop-color="#FFFFFF"/><stop offset="1" stop-color="#ADADAD"/></linearGradient><linearGradient x1="23.7183" y1="41.1143" x2="23.7183" y2="44.6445" gradientUnits="userSpaceOnUse" id="XMLID_20_"><stop offset="0" stop-color="#CECEDB"/><stop offset="0.191" stop-color="#FFFFFF"/><stop offset="0.4831" stop-color="#CECEDB"/><stop offset="0.7528" stop-color="#B3B3C6"/><stop offset="0.9944" stop-color="#828282"/></linearGradient><linearGradient x1="291.568" y1="864.851" x2="291.568" y2="868.382" gradientUnits="userSpaceOnUse" id="XMLID_21_" gradientTransform="matrix(0 -1 1 0 -842.898 329.103)"><stop offset="0" stop-color="#CECEDB"/><stop offset="0.191" stop-color="#FFFFFF"/><stop offset="0.4831" stop-color="#CECEDB"/><stop offset="0.7528" stop-color="#B3B3C6"/><stop offset="0.9944" stop-color="#828282"/></linearGradient><linearGradient x1="23.7192" y1="46.4414" x2="23.7192" y2="39.6914" gradientUnits="userSpaceOnUse" id="XMLID_22_"><stop offset="0" stop-color="#CF0000"/><stop offset="0.9944" stop-color="#FF6D00"/></linearGradient><linearGradient x1="23.7183" y1="37.0664" x2="23.7183" y2="49.6291" gradientUnits="userSpaceOnUse" id="XMLID_23_"><stop offset="0" stop-color="#FFF030"/><stop offset="0.9944" stop-color="#FFAE00"/></linearGradient><linearGradient x1="23.7183" y1="41.0039" x2="23.7183" y2="43.8163" gradientUnits="userSpaceOnUse" id="XMLID_24_"><stop offset="0" stop-color="#FFFFFF"/><stop offset="0.4971" stop-color="#FFE3A9"/><stop offset="0.9944" stop-color="#FFC957"/></linearGradient><linearGradient x1="32.2734" y1="26.916" x2="14.0291" y2="8.6717" gradientUnits="userSpaceOnUse" id="XMLID_25_" gradientTransform="matrix(2.53797 0 0 2.53797 -30.176 -58.1223)"><stop offset="0" stop-color="#585868"/><stop offset="1" stop-color="#494949"/></linearGradient><linearGradient x1="15.1655" y1="9.8076" x2="33.4075" y2="28.0496" gradientUnits="userSpaceOnUse" id="XMLID_26_" gradientTransform="matrix(2.53797 0 0 2.53797 -30.176 -58.1223)"><stop offset="0" stop-color="#7D7D99"/><stop offset="1" stop-color="#494949"/></linearGradient><radialGradient cx="105.203" cy="47.2754" r="139.088" fx="105.203" fy="47.2754" gradientUnits="userSpaceOnUse" id="XMLID_27_" gradientTransform="matrix(0.1875 0 0 0.1875 19.5 19.5)"><stop offset="0" stop-color="#FFFFFF"/><stop offset="0.2809" stop-color="#CECEDB"/><stop offset="0.6404" stop-color="#BDBDCF"/><stop offset="1" stop-color="#9A9AB1"/></radialGradient><linearGradient x1="23.7192" y1="13.2217" x2="23.7192" y2="3.3634" gradientUnits="userSpaceOnUse" id="XMLID_28_"><stop offset="0" stop-color="#CECEDB"/><stop offset="1" stop-color="#EEEEEE"/></linearGradient><linearGradient x1="15.043" y1="16.6919" x2="22.1714" y2="38.2412" gradientUnits="userSpaceOnUse" id="XMLID_29_"><stop offset="0" stop-color="#FFFFFF"/><stop offset="1" stop-color="#CECEDB"/></linearGradient><linearGradient x1="16.6357" y1="35.1963" x2="17.7829" y2="28.4773" gradientUnits="userSpaceOnUse" id="XMLID_30_"><stop offset="0" stop-color="#FFFFFF"/><stop offset="1" stop-color="#BDBDCF"/></linearGradient><linearGradient x1="13.8062" y1="16.3555" x2="20.0928" y2="16.3555" gradientUnits="userSpaceOnUse" id="XMLID_31_"><stop offset="0" stop-color="#7D7D99"/><stop offset="1" stop-color="#CECEDB"/></linearGradient><linearGradient x1="13.8062" y1="18.7842" x2="20.0928" y2="18.7842" gradientUnits="userSpaceOnUse" id="XMLID_32_"><stop offset="0" stop-color="#7D7D99"/><stop offset="1" stop-color="#CECEDB"/></linearGradient><linearGradient x1="14.6323" y1="18.8965" x2="18.6686" y2="22.9328" gradientUnits="userSpaceOnUse" id="XMLID_33_"><stop offset="0" stop-color="#7D7D99"/><stop offset="1" stop-color="#CECEDB"/></linearGradient><linearGradient x1="271.318" y1="478.916" x2="271.318" y2="477.593" gradientUnits="userSpaceOnUse" id="XMLID_34_" gradientTransform="matrix(0.9659 0.2588 0 1.0353 -242.051 -531.042)"><stop offset="0.0056" stop-color="#FFFFFF"/><stop offset="1" stop-color="#B6B6B6"/></linearGradient><linearGradient x1="271.318" y1="478.856" x2="271.318" y2="477.716" gradientUnits="userSpaceOnUse" id="XMLID_35_" gradientTransform="matrix(0.9659 0.2588 0 1.0353 -242.051 -531.042)"><stop offset="0.0056" stop-color="#B6B6B6"/><stop offset="0.3669" stop-color="#9D9D9D"/><stop offset="0.7432" stop-color="#898989"/><stop offset="1" stop-color="#828282"/></linearGradient><linearGradient x1="-890.743" y1="529.262" x2="-890.743" y2="528.079" gradientUnits="userSpaceOnUse" id="XMLID_36_" gradientTransform="matrix(-0.9659 -0.2588 0 0.7765 -840.352 -606.847)"><stop offset="0.0056" stop-color="#99FF66"/><stop offset="0.2358" stop-color="#68DE56"/><stop offset="0.4783" stop-color="#3BC147"/><stop offset="0.6954" stop-color="#1BAB3C"/><stop offset="0.8767" stop-color="#079E35"/><stop offset="1" stop-color="#009933"/></linearGradient><linearGradient x1="271.307" y1="478.517" x2="271.339" y2="477.647" gradientUnits="userSpaceOnUse" id="XMLID_37_" gradientTransform="matrix(0.9659 0.2588 0 1.0353 -242.051 -531.042)"><stop offset="0.0056" stop-color="#33CC33"/><stop offset="0.3585" stop-color="#1BB433"/><stop offset="0.7397" stop-color="#07A033"/><stop offset="1" stop-color="#009933"/></linearGradient><linearGradient x1="271.319" y1="477.777" x2="271.319" y2="478.347" gradientUnits="userSpaceOnUse" id="XMLID_38_" gradientTransform="matrix(0.9659 0.2588 0 1.0353 -242.051 -531.042)"><stop offset="0" stop-color="#FFFFFF"/><stop offset="0.0907" stop-color="#E8F7D6"/><stop offset="0.2274" stop-color="#C8ED9E"/><stop offset="0.3649" stop-color="#ADE46D"/><stop offset="0.5002" stop-color="#97DC46"/><stop offset="0.6328" stop-color="#85D627"/><stop offset="0.7621" stop-color="#79D212"/><stop offset="0.8863" stop-color="#72D004"/><stop offset="1" stop-color="#6FCF00"/></linearGradient></defs><g id="layer1" transform="translate(-118.491 -171.608)"><path d="M450.831 327.176 483.156 327.176 483.156 380.714 521.541 380.714" id="path4212" stroke="#000000" fill="none"/><g id="Layer_1" overflow="visible" transform="matrix(1.25 0 0 1.25 518.354 326.973)"><linearGradient x1="32.2734" y1="26.916" x2="14.0291" y2="8.6717" gradientUnits="userSpaceOnUse" id="linearGradient3956"><stop offset="0" stop-color="#585868"/><stop offset="1" stop-color="#494949"/></linearGradient><linearGradient x1="15.1655" y1="9.8076" x2="33.4075" y2="28.0496" gradientUnits="userSpaceOnUse" id="linearGradient3963"><stop offset="0" stop-color="#7D7D99"/><stop offset="1" stop-color="#494949"/></linearGradient><radialGradient cx="105.203" cy="47.2754" r="139.088" fx="105.203" fy="47.2754" gradientUnits="userSpaceOnUse" id="radialGradient3970" gradientTransform="matrix(0.1875 0 0 0.1875 19.5 19.5)"><stop offset="0" stop-color="#FFFFFF"/><stop offset="0.2809" stop-color="#CECEDB"/><stop offset="0.6404" stop-color="#BDBDCF"/><stop offset="1" stop-color="#9A9AB1"/></radialGradient><linearGradient x1="23.7192" y1="13.2217" x2="23.7192" y2="3.3634" gradientUnits="userSpaceOnUse" id="linearGradient3981"><stop offset="0" stop-color="#CECEDB"/><stop offset="1" stop-color="#EEEEEE"/></linearGradient><linearGradient x1="15.043" y1="16.6919" x2="22.1714" y2="38.2412" gradientUnits="userSpaceOnUse" id="linearGradient3988"><stop offset="0" stop-color="#FFFFFF"/><stop offset="1" stop-color="#CECEDB"/></linearGradient><linearGradient x1="16.6357" y1="35.1963" x2="17.7829" y2="28.4773" gradientUnits="userSpaceOnUse" id="linearGradient3995"><stop offset="0" stop-color="#FFFFFF"/><stop offset="1" stop-color="#BDBDCF"/></linearGradient><linearGradient x1="13.8062" y1="16.3555" x2="20.0928" y2="16.3555" gradientUnits="userSpaceOnUse" id="linearGradient4002"><stop offset="0" stop-color="#7D7D99"/><stop offset="1" stop-color="#CECEDB"/></linearGradient><linearGradient x1="13.8062" y1="18.7842" x2="20.0928" y2="18.7842" gradientUnits="userSpaceOnUse" id="linearGradient4009"><stop offset="0" stop-color="#7D7D99"/><stop offset="1" stop-color="#CECEDB"/></linearGradient><linearGradient x1="14.6323" y1="18.8965" x2="18.6686" y2="22.9328" gradientUnits="userSpaceOnUse" id="linearGradient4016"><stop offset="0" stop-color="#7D7D99"/><stop offset="1" stop-color="#CECEDB"/></linearGradient><g id="g1182" transform="translate(-12.8 0)"><linearGradient x1="23.7183" y1="41.1143" x2="23.7183" y2="44.6445" gradientUnits="userSpaceOnUse" id="linearGradient3902"><stop offset="0" stop-color="#CECEDB"/><stop offset="0.191" stop-color="#FFFFFF"/><stop offset="0.4831" stop-color="#CECEDB"/><stop offset="0.7528" stop-color="#B3B3C6"/><stop offset="0.9944" stop-color="#828282"/></linearGradient><linearGradient x1="291.568" y1="864.851" x2="291.568" y2="868.382" gradientUnits="userSpaceOnUse" id="linearGradient3916" gradientTransform="matrix(0 -1 1 0 -842.898 329.103)"><stop offset="0" stop-color="#CECEDB"/><stop offset="0.191" stop-color="#FFFFFF"/><stop offset="0.4831" stop-color="#CECEDB"/><stop offset="0.7528" stop-color="#B3B3C6"/><stop offset="0.9944" stop-color="#828282"/></linearGradient><linearGradient x1="23.7192" y1="46.4414" x2="23.7192" y2="39.6914" gradientUnits="userSpaceOnUse" id="linearGradient3929"><stop offset="0" stop-color="#CF0000"/><stop offset="0.9944" stop-color="#FF6D00"/></linearGradient><linearGradient x1="23.7183" y1="37.0664" x2="23.7183" y2="49.6291" gradientUnits="userSpaceOnUse" id="linearGradient3936"><stop offset="0" stop-color="#FFF030"/><stop offset="0.9944" stop-color="#FFAE00"/></linearGradient><linearGradient x1="23.7183" y1="41.0039" x2="23.7183" y2="43.8163" gradientUnits="userSpaceOnUse" id="linearGradient3943"><stop offset="0" stop-color="#FFFFFF"/><stop offset="0.4971" stop-color="#FFE3A9"/><stop offset="0.9944" stop-color="#FFC957"/></linearGradient><path d="M36.049 41.004 35.376 41.004 27.454 41.004C27.288 40.717 27.029 40.49 26.719 40.364L26.719 31.675 21.844 31.675 21.844 32.042 21.844 40.364C21.533 40.49 21.275 40.717 21.109 41.004L12.515 41.004 12.515 45.879 20.956 45.879C21.123 46.525 21.708 47.004 22.407 47.004L26.157 47.004C26.855 47.004 27.441 46.525 27.608 45.879L36.049 45.879 36.049 41.004Z" id="path1183" opacity="0.2"/><path d="M35.861 40.816 35.188 40.816 27.266 40.816C27.1 40.529 26.841 40.302 26.531 40.176L26.531 31.487 21.656 31.487 21.656 31.854 21.656 40.176C21.345 40.302 21.087 40.529 20.921 40.816L12.327 40.816 12.327 45.691 20.768 45.691C20.935 46.337 21.52 46.816 22.219 46.816L25.969 46.816C26.667 46.816 27.253 46.337 27.42 45.691L35.861 45.691 35.861 40.816Z" id="path1184" opacity="0.2"/><path d="M35.674 40.629 35.001 40.629 27.079 40.629C26.913 40.342 26.654 40.115 26.344 39.989L26.344 31.3 21.469 31.3 21.469 31.667 21.469 39.989C21.158 40.115 20.9 40.342 20.734 40.629L12.14 40.629 12.14 45.504 20.581 45.504C20.748 46.15 21.333 46.629 22.032 46.629L25.782 46.629C26.48 46.629 27.066 46.15 27.233 45.504L35.674 45.504 35.674 40.629Z" id="path1185" opacity="0.2"/><path d="M35.486 45.316 35.486 40.441 34.813 40.441 11.952 40.441 11.952 45.316Z" id="polygon1186" fill="#616161"/><rect x="12.624" y="41.114" width="22.189" height="3.53" id="rect1202" fill="url(#XMLID_20_)"/><path d="M26.156 31.112 21.281 31.112 21.281 31.479 21.281 43.959 26.156 43.959Z" id="polygon1203" fill="#616161"/><rect x="21.953" y="31.479" width="3.531" height="12.112" id="rect1219" fill="url(#XMLID_21_)"/><path d="M27.094 44.941C27.094 45.77 26.422 46.441 25.594 46.441L21.844 46.441C21.016 46.441 20.344 45.77 20.344 44.941L20.344 41.191C20.344 40.363 21.016 39.691 21.844 39.691L25.594 39.691C26.422 39.691 27.094 40.363 27.094 41.191L27.094 44.941Z" id="path1226" fill="url(#XMLID_22_)"/><path d="M21.844 40.441C21.43 40.441 21.094 40.778 21.094 41.191L21.094 44.941C21.094 45.355 21.43 45.691 21.844 45.691L25.594 45.691C26.008 45.691 26.344 45.355 26.344 44.941L26.344 41.191C26.344 40.778 26.008 40.441 25.594 40.441L21.844 40.441Z" id="path1233" fill="url(#XMLID_23_)"/><path d="M21.844 41.004C21.74 41.004 21.656 41.089 21.656 41.192L21.656 44.942C21.656 45.046 21.74 45.13 21.844 45.13L25.594 45.13C25.698 45.13 25.782 45.046 25.782 44.942L25.782 41.192C25.782 41.089 25.698 41.004 25.594 41.004L21.844 41.004Z" id="path1241" fill="url(#XMLID_24_)"/></g><path d="M33.9002-54.8838 0.632433-33.0852C0.622283-33.0751 0.525838-33.0142 0.525838-33.0142 0.546138-33.0268 0.406554-32.9177 0.406554-32.9177 0.358334-32.8796 0.358334-32.8898 0.317724-32.8441L-0.121345-32.3314C-0.161955-32.2832-0.149265-32.2908-0.179715-32.235L-0.182215-32.2274C-0.177115-32.2376-0.28881-32.0345-0.28881-32.0345-0.29391-32.0218-0.33449-31.9305-0.33449-31.9305-0.33699-31.9203-0.4157-31.7147-0.4157-31.7147L-0.44869-31.6107C-0.45379-31.5904-0.50199-31.3873-0.50199-31.3873-0.50199-31.3873-0.52483-31.2604-0.52483-31.2604L-0.54513-31.0066C-0.54513-31.0295-0.55023-30.933-0.55023-30.933L-0.55023 26.9149C-0.55023 28.0418 0.168016 29.0392 1.23904 29.3971L26.0172 37.6581C26.8319 37.9272 27.7278 37.785 28.4131 37.2698L61.4524 12.4891C62.1072 11.9993 62.498 11.2151 62.498 10.3978L62.498-47.4171C62.498-47.4374 62.4929-47.506 62.4904-47.5339 62.4904-47.5593 62.4777-47.7014 62.4777-47.7039 62.4777-47.7039 62.4523-47.8689 62.4523-47.879 62.4498-47.8815 62.4371-47.9729 62.4371-47.9729 62.4295-48.0136 62.4269-48.011 62.4143-48.0516 62.4143-48.0516 62.3584-48.2496 62.3559-48.2496L62.3026-48.3968C62.295-48.4146 62.2188-48.5821 62.2188-48.5821 62.2163-48.5872 62.1402-48.7318 62.1402-48.7318 62.13-48.7496 62.031-48.9018 62.031-48.9018 62.031-48.9018 61.932-49.0389 61.9295-49.0389L61.8305-49.1582C61.8178-49.1734 61.8001-49.1886 61.7874-49.2039L61.6909-49.3054C61.6808-49.313 61.564-49.4145 61.564-49.4145 61.5311-49.4424 61.4194-49.5313 61.4194-49.5313 61.4041-49.5414 61.2696-49.6302 61.2696-49.6302 61.2468-49.6429 61.0869-49.7368 61.0869-49.7368 61.0615-49.7495 60.9219-49.813 60.9219-49.813 60.894-49.8231 60.7519-49.8815 60.7519-49.8815 60.7544-49.8815 60.5615-49.9399 60.5615-49.9399 60.5691-49.9374 60.4296-49.9754 60.4296-49.9754L35.8849-55.2518C35.1945-55.399 34.489-55.2671 33.9002-54.8838Z" id="path1242" opacity="0.2"/><path d="M61.5412-47.4755C61.5412-47.5136 61.5387-47.5542 61.5336-47.5897 61.5285-47.6329 61.5234-47.6735 61.5158-47.7141 61.5107-47.7344 61.5107-47.7547 61.5057-47.7724 61.5032-47.7877 61.4955-47.8054 61.4904-47.8207 61.4803-47.8613 61.4676-47.9019 61.4549-47.9425 61.4448-47.978 61.4321-48.0136 61.4194-48.0466 61.4041-48.0846 61.3864-48.1201 61.3661-48.1557 61.3483-48.1887 61.3331-48.2217 61.3128-48.2547 61.2925-48.2877 61.2696-48.3207 61.2493-48.3536 61.229-48.3841 61.2062-48.4146 61.1859-48.445 61.1605-48.4755 61.1326-48.5059 61.1072-48.5338 61.0818-48.5618 61.0564-48.5897 61.0311-48.6151 61.0031-48.643 60.9727-48.6684 60.9422-48.6912 60.9118-48.714 60.8839-48.742 60.8534-48.7623 60.8204-48.7851 60.7899-48.8054 60.757-48.8257 60.7214-48.846 60.691-48.8689 60.6529-48.8841 60.6453-48.8892 60.6377-48.8942 60.6275-48.8993 60.5996-48.912 60.5742-48.9221 60.5463-48.9323 60.5082-48.9475 60.4752-48.9653 60.4372-48.978 60.3966-48.9932 60.3559-49.0034 60.3103-49.0161 60.2849-49.0237 60.2595-49.0338 60.2341-49.0389L35.6843-54.3153C35.2478-54.4092 34.7961-54.3229 34.423-54.0818L1.15525-32.2858C1.14766-32.2807 1.14003-32.2731 1.13242-32.268 1.11972-32.2604 1.10704-32.2528 1.09434-32.2452 1.06388-32.2249 1.03597-32.1969 1.00551-32.1741 0.990285-32.1614 0.969985-32.1462 0.954755-32.1335 0.848161-32.0345 0.751718-31.9254 0.673041-31.8061 0.660351-31.7883 0.650201-31.7655 0.640051-31.7477 0.614671-31.7046 0.589291-31.6614 0.568991-31.6183 0.558841-31.5929 0.546151-31.5675 0.536001-31.5447 0.518231-31.5015 0.500471-31.4609 0.487781-31.4178 0.480181-31.3924 0.470011-31.3645 0.462401-31.3391 0.449711-31.2934 0.442101-31.2503 0.431941-31.2046 0.426841-31.1792 0.421791-31.1513 0.416711-31.1259 0.409111-31.0752 0.406561-31.0219 0.404021-30.9711 0.404021-30.9508 0.401521-30.9305 0.401521-30.9102 0.401521-30.9051 0.401521-30.9026 0.401521-30.8975L0.401521 26.9175C0.401521 27.6332 0.860893 28.2702 1.53853 28.4961L26.3167 36.7546C26.8345 36.9272 27.403 36.8359 27.8395 36.5085L60.8813 11.7277C61.2975 11.413 61.5463 10.9207 61.5463 10.3978L61.5463-47.4171C61.5463-47.4374 61.5438-47.4552 61.5412-47.4755Z" id="path1243" opacity="0.2"/><path d="M33.4255-55.3584 0.155295-33.5624C0.145145-33.5522 0.0487-33.4913 0.0487-33.4913 0.069-33.504-0.070585-33.3949-0.070585-33.3949-0.118805-33.3568-0.118805-33.3669-0.159415-33.3213L-0.598484-32.8086C-0.639094-32.7604-0.626404-32.768-0.656854-32.7121L-0.659354-32.7045C-0.654254-32.7147-0.765949-32.5117-0.765949-32.5117-0.771049-32.499-0.811629-32.4076-0.811629-32.4076-0.814129-32.3975-0.892839-32.1919-0.892839-32.1919L-0.925829-32.0878C-0.930929-32.0675-0.979129-31.8645-0.979129-31.8645-0.979129-31.8645-1.00197-31.7376-1.00197-31.7376L-1.02227-31.4838C-1.02227-31.5066-1.02737-31.4102-1.02737-31.4102L-1.02737 26.4378C-1.02737 27.5646-0.309123 28.5621 0.761901 28.9199L25.5401 37.181C26.3548 37.45 27.2507 37.3079 27.9359 36.7927L60.9752 12.012C61.63 11.5222 62.0209 10.7379 62.0209 9.92069L62.0209-47.8943C62.0209-47.9146 62.0158-47.9831 62.0133-48.011 62.0133-48.0364 62.0006-48.1785 62.0006-48.1811 62.0006-48.1811 61.9752-48.346 61.9752-48.3562 61.9727-48.3587 61.96-48.4501 61.96-48.4501 61.9549-48.4907 61.9524-48.4882 61.9397-48.5288 61.9397-48.5288 61.8838-48.7267 61.8813-48.7267L61.828-48.8739C61.8204-48.8917 61.7442-49.0592 61.7442-49.0592 61.7417-49.0643 61.6656-49.2089 61.6656-49.2089 61.6554-49.2267 61.5564-49.379 61.5564-49.379 61.5564-49.379 61.4575-49.516 61.4549-49.516L61.3559-49.6353C61.3432-49.6506 61.3255-49.6658 61.3128-49.681L61.2164-49.7825C61.2062-49.7901 61.0895-49.8917 61.0895-49.8917 61.0539-49.9196 60.9422-50.0084 60.9422-50.0084 60.927-50.0185 60.7925-50.1074 60.7925-50.1074 60.7697-50.1201 60.6098-50.214 60.6098-50.214 60.5844-50.2267 60.4448-50.2901 60.4448-50.2901 60.4169-50.3003 60.2748-50.3586 60.2748-50.3586 60.2773-50.3586 60.0844-50.417 60.0844-50.417 60.092-50.4145 59.9524-50.4525 59.9524-50.4525L35.4077-55.729C34.7174-55.8736 34.0144-55.7442 33.4256-55.3584Z" id="path1244" opacity="0.2"/><path d="M61.064-47.9526C61.064-47.9907 61.0615-48.0313 61.0564-48.0669 61.0513-48.11 61.0463-48.1506 61.0387-48.1912 61.0336-48.2115 61.0336-48.2318 61.0285-48.2496 61.026-48.2648 61.0184-48.2826 61.0133-48.2978 61.0031-48.3384 60.9905-48.379 60.9778-48.4196 60.9651-48.4552 60.9524-48.4882 60.9397-48.5237 60.9245-48.5618 60.9067-48.5973 60.8864-48.6328 60.8686-48.6658 60.8534-48.6988 60.8331-48.7318 60.8128-48.7648 60.79-48.7978 60.7696-48.8308 60.7493-48.8612 60.7265-48.8917 60.7062-48.9221 60.6808-48.9526 60.6529-48.9831 60.6275-49.011 60.6021-49.0389 60.5768-49.0668 60.5514-49.0922 60.5235-49.1201 60.493-49.1455 60.4625-49.1683 60.4321-49.1912 60.4042-49.2191 60.3737-49.2394 60.3407-49.2622 60.3103-49.2826 60.2773-49.3028 60.2443-49.3282 60.2113-49.3485 60.1758-49.3663 60.1682-49.3714 60.1605-49.3764 60.1504-49.3815 60.1225-49.3942 60.0971-49.4044 60.0692-49.4145 60.0311-49.4297 59.9981-49.4475 59.96-49.4602 59.9194-49.4754 59.8788-49.4856 59.8331-49.4983 59.8077-49.5059 59.7824-49.516 59.757-49.5211L35.2072-54.7976C34.7707-54.8914 34.3189-54.8051 33.9458-54.5641L0.678112-32.7654C0.670512-32.7603 0.662882-32.7527 0.655272-32.7477 0.642582-32.7401 0.629892-32.7324 0.617202-32.7248 0.586752-32.7045 0.558832-32.6766 0.528372-32.6538 0.513142-32.6411 0.492842-32.6258 0.477612-32.6131 0.371017-32.5142 0.274574-32.405 0.195897-32.2857 0.183207-32.268 0.173057-32.2451 0.162907-32.2274 0.137527-32.1842 0.112147-32.1411 0.091847-32.0979 0.081697-32.0726 0.069007-32.0472 0.058857-32.0243 0.041087-31.9812 0.023327-31.9406 0.010637-31.8974 0.003037-31.8721-0.007123-31.8441-0.014743-31.8188-0.027433-31.7731-0.035043-31.7299-0.045203-31.6843-0.050303-31.6589-0.055353-31.631-0.060433-31.6056-0.068033-31.5548-0.070583-31.5015-0.073123-31.4508-0.073123-31.4305-0.075623-31.4101-0.075623-31.3898-0.075623-31.3847-0.075623-31.3822-0.075623-31.3772L-0.075623 26.4378C-0.075623 27.1535 0.38375 27.7905 1.06139 28.0164L25.8396 36.275C26.3573 36.4476 26.9258 36.3562 27.3624 36.0288L60.4042 11.248C60.8204 10.9333 61.0691 10.441 61.0691 9.91815L61.0691-47.8943C61.0691-47.9146 61.0666-47.9323 61.064-47.9526Z" id="path1245" opacity="0.2"/><path d="M32.9484-56.1579-0.319306-34.3618C-0.329456-34.3517-0.425901-34.2882-0.425901-34.2882-0.405601-34.3009-0.545185-34.1918-0.545185-34.1918-0.593405-34.1537-0.593405-34.1639-0.634015-34.1182L-1.07308-33.6055C-1.11369-33.5573-1.101-33.5649-1.13145-33.5091L-1.13655-33.504C-1.13145-33.5116-1.24315-33.3111-1.24315-33.3111-1.24825-33.2984-1.28883-33.207-1.28883-33.207-1.29133-33.1969-1.37005-32.9913-1.37005-32.9888L-1.40304-32.8847C-1.40814-32.8644-1.45634-32.6614-1.45634-32.6614-1.45634-32.6614-1.47918-32.5345-1.47918-32.5345L-1.49695-32.2807C-1.49695-32.3035-1.50205-32.2071-1.50205-32.2071L-1.50205 25.6434C-1.50205 26.7703-0.783803 27.7677 0.28722 28.1256L25.0654 36.3867C25.8801 36.6557 26.776 36.511 27.4613 35.9984L60.5006 11.2176C61.1554 10.7252 61.5463 9.94353 61.5463 9.12631L61.5463-48.6937C61.5463-48.7115 61.5412-48.7826 61.5387-48.8105 61.5387-48.8359 61.526-48.978 61.526-48.9805 61.526-48.9805 61.5006-49.1455 61.5006-49.1556 61.4981-49.1581 61.4854-49.2495 61.4854-49.2495 61.4778-49.2902 61.4752-49.2902 61.4625-49.3282 61.4625-49.3282 61.4067-49.5262 61.4042-49.5262L61.3508-49.6709C61.3433-49.6886 61.2671-49.8561 61.2671-49.8561 61.2646-49.8586 61.1884-50.0059 61.1884-50.0059 61.1783-50.0211 61.0793-50.1759 61.0793-50.1759 61.0793-50.1759 60.9803-50.313 60.9778-50.313L60.8788-50.4322C60.8661-50.4475 60.8483-50.4652 60.8356-50.4779L60.7392-50.5794C60.729-50.587 60.6123-50.6911 60.6123-50.6911 60.5768-50.719 60.4651-50.8079 60.4651-50.8079 60.4499-50.818 60.3154-50.9068 60.3154-50.9068 60.2925-50.9221 60.1326-51.0134 60.1326-51.0134 60.1072-51.0261 59.9677-51.0896 59.9677-51.0896 59.9397-51.0997 59.7976-51.1581 59.7976-51.1581 59.8001-51.1581 59.6073-51.2139 59.6073-51.2139 59.6149-51.2114 59.4753-51.2495 59.4753-51.2495L34.9306-56.5259C34.2428-56.6731 33.5372-56.5437 32.9484-56.1579Z" id="path1252" fill="url(#XMLID_25_)"/><path d="M60.5894-48.7521C60.5894-48.7902 60.5869-48.8282 60.5818-48.8663 60.5767-48.9069 60.5717-48.9501 60.5641-48.9881 60.559-49.0084 60.559-49.0288 60.5539-49.0465 60.5514-49.0617 60.5438-49.0795 60.5387-49.0947 60.5286-49.1353 60.5159-49.1759 60.5032-49.2166 60.4905-49.2521 60.4778-49.2851 60.4651-49.3206 60.4499-49.3587 60.4321-49.3942 60.4118-49.4297 60.394-49.4627 60.3788-49.4957 60.3585-49.5287 60.3382-49.5617 60.3154-49.5947 60.2951-49.6277 60.2748-49.6582 60.2519-49.6886 60.2316-49.7191 60.2062-49.7495 60.1783-49.7774 60.1529-49.8079 60.1275-49.8358 60.1022-49.8612 60.0768-49.8891 60.0489-49.9145 60.0184-49.9399 59.988-49.9653 59.9575-49.9881 59.9296-50.0135 59.8991-50.0363 59.8661-50.0592 59.8357-50.0769 59.8027-50.0972 59.7672-50.1175 59.7367-50.1404 59.6986-50.1581 59.691-50.1632 59.6834-50.1683 59.6732-50.1734 59.6453-50.1861 59.6199-50.1962 59.592-50.2089 59.554-50.2241 59.521-50.2394 59.4829-50.2546 59.4423-50.2673 59.4017-50.28 59.356-50.2927 59.3306-50.2978 59.3052-50.3079 59.2799-50.3155L34.7301-55.5919C34.2935-55.6858 33.8418-55.5995 33.4687-55.3559L0.200983-33.5649C0.193383-33.5598 0.185753-33.5522 0.178143-33.5471 0.165453-33.5395 0.152763-33.5319 0.140073-33.5243 0.109613-33.5014 0.081703-33.4761 0.051243-33.4532 0.036013-33.4405 0.015713-33.4278 0.000483-33.4126-0.106111-33.3136-0.202554-33.2045-0.281231-33.0852-0.293921-33.0649-0.304071-33.0446-0.314221-33.0268-0.339601-32.9837-0.364981-32.9431-0.385281-32.8974-0.395431-32.8746-0.408121-32.8492-0.418271-32.8238-0.436031-32.7807-0.453801-32.7401-0.466491-32.6969-0.474091-32.6715-0.484261-32.6436-0.491871-32.6182-0.504561-32.5751-0.512171-32.5294-0.522321-32.4837-0.527421-32.4583-0.532471-32.4304-0.537551-32.405-0.545151-32.3517-0.547701-32.301-0.550241-32.2477-0.550241-32.2274-0.552741-32.2071-0.552741-32.1868-0.552741-32.1843-0.552741-32.1792-0.552741-32.1766L-0.552741 25.6409C-0.552741 26.3566-0.093368 26.9911 0.58427 27.2195L25.3625 35.4781C25.8802 35.6506 26.4487 35.5567 26.8853 35.2293L59.927 10.4511C60.3433 10.1364 60.592 9.64405 60.592 9.12123L60.592-48.6937C60.5945-48.7115 60.592-48.7318 60.5895-48.7521Z" id="path1259" fill="url(#XMLID_26_)"/><path d="M35.109 26.496 22.091 36.26 12.329 33.005 12.329 10.224 22.091 13.479 35.109 3.715Z" id="polygon1272" fill="url(#XMLID_27_)" transform="matrix(2.53797 0 0 2.53797 -30.176 -58.1223)"/><path d="M12.329 10.224 22.091 13.479 35.109 3.715 25.437 1.637Z" id="polygon1279" fill="url(#XMLID_28_)" transform="matrix(2.53797 0 0 2.53797 -30.176 -58.1223)"/><path d="M22.091 36.26 22.091 13.479 12.329 10.224 12.329 33.005Z" id="polygon1286" fill="url(#XMLID_29_)" transform="matrix(2.53797 0 0 2.53797 -30.176 -58.1223)"/><path d="M12.329 33.005 22.091 36.26 22.091 30.504 12.329 27.4Z" id="polygon1293" fill="url(#XMLID_30_)" transform="matrix(2.53797 0 0 2.53797 -30.176 -58.1223)"/><path d="M20.093 18.261 20.093 16.546 13.806 14.451 13.806 16.165Z" id="polygon1300" fill="url(#XMLID_31_)" transform="matrix(2.53797 0 0 2.53797 -30.176 -58.1223)"/><path d="M20.093 20.689 20.093 18.975 13.806 16.879 13.806 18.594Z" id="polygon1307" fill="url(#XMLID_32_)" transform="matrix(2.53797 0 0 2.53797 -30.176 -58.1223)"/><path d="M20.093 23.118 20.093 21.404 13.806 19.308 13.806 21.023Z" id="polygon1314" fill="url(#XMLID_33_)" transform="matrix(2.53797 0 0 2.53797 -30.176 -58.1223)"/><g id="g1315" transform="matrix(2.53797 0 0 2.53797 -30.176 -58.1223)"><linearGradient x1="271.318" y1="478.916" x2="271.318" y2="477.593" gradientUnits="userSpaceOnUse" id="linearGradient4024" gradientTransform="matrix(0.9659 0.2588 0 1.0353 -242.051 -531.042)"><stop offset="0.0056" stop-color="#FFFFFF"/><stop offset="1" stop-color="#B6B6B6"/></linearGradient><linearGradient x1="271.318" y1="478.856" x2="271.318" y2="477.716" gradientUnits="userSpaceOnUse" id="linearGradient4031" gradientTransform="matrix(0.9659 0.2588 0 1.0353 -242.051 -531.042)"><stop offset="0.0056" stop-color="#B6B6B6"/><stop offset="0.3669" stop-color="#9D9D9D"/><stop offset="0.7432" stop-color="#898989"/><stop offset="1" stop-color="#828282"/></linearGradient><linearGradient x1="-890.743" y1="529.262" x2="-890.743" y2="528.079" gradientUnits="userSpaceOnUse" id="linearGradient4042" gradientTransform="matrix(-0.9659 -0.2588 0 0.7765 -840.352 -606.847)"><stop offset="0.0056" stop-color="#99FF66"/><stop offset="0.2358" stop-color="#68DE56"/><stop offset="0.4783" stop-color="#3BC147"/><stop offset="0.6954" stop-color="#1BAB3C"/><stop offset="0.8767" stop-color="#079E35"/><stop offset="1" stop-color="#009933"/></linearGradient><linearGradient x1="271.307" y1="478.517" x2="271.339" y2="477.647" gradientUnits="userSpaceOnUse" id="linearGradient4057" gradientTransform="matrix(0.9659 0.2588 0 1.0353 -242.051 -531.042)"><stop offset="0.0056" stop-color="#33CC33"/><stop offset="0.3585" stop-color="#1BB433"/><stop offset="0.7397" stop-color="#07A033"/><stop offset="1" stop-color="#009933"/></linearGradient><linearGradient x1="271.319" y1="477.777" x2="271.319" y2="478.347" gradientUnits="userSpaceOnUse" id="linearGradient4068" gradientTransform="matrix(0.9659 0.2588 0 1.0353 -242.051 -531.042)"><stop offset="0" stop-color="#FFFFFF"/><stop offset="0.0907" stop-color="#E8F7D6"/><stop offset="0.2274" stop-color="#C8ED9E"/><stop offset="0.3649" stop-color="#ADE46D"/><stop offset="0.5002" stop-color="#97DC46"/><stop offset="0.6328" stop-color="#85D627"/><stop offset="0.7621" stop-color="#79D212"/><stop offset="0.8863" stop-color="#72D004"/><stop offset="1" stop-color="#6FCF00"/></linearGradient><path d="M19.776 33.411C19.323 33.29 18.968 33.508 18.968 33.908 18.968 34.308 19.323 34.717 19.776 34.838L20.256 34.967C20.71 35.089 21.065 34.87 21.065 34.47 21.065 34.071 20.71 33.661 20.256 33.54L19.776 33.411Z" id="path1322" fill="url(#XMLID_34_)"/><path d="M19.776 33.603C19.429 33.509 19.146 33.668 19.146 33.957 19.146 34.246 19.429 34.556 19.776 34.648L20.256 34.777C20.604 34.87 20.886 34.711 20.886 34.423 20.886 34.135 20.604 33.825 20.256 33.733L19.776 33.603Z" id="path1331" fill="url(#XMLID_35_)"/><path d="M20.828 34.406C20.828 34.66 20.572 34.797 20.257 34.712L19.777 34.584C19.462 34.499 19.207 34.226 19.207 33.972L19.207 33.972C19.207 33.719 19.462 33.582 19.777 33.666L20.257 33.795C20.572 33.88 20.828 34.153 20.828 34.406L20.828 34.406Z" id="path1342" fill="url(#XMLID_36_)"/><path d="M19.776 33.794C19.531 33.729 19.325 33.832 19.325 34.02 19.325 34.208 19.532 34.422 19.776 34.489L20.256 34.618C20.501 34.683 20.708 34.58 20.708 34.391 20.708 34.202 20.501 33.989 20.256 33.923L19.776 33.794Z" id="path1351" fill="url(#XMLID_37_)"/><path d="M19.758 33.713C19.556 33.659 19.4 33.75 19.4 33.864 19.4 33.978 19.556 34.153 19.758 34.207L20.276 34.346C20.481 34.402 20.634 34.312 20.634 34.196 20.634 34.08 20.481 33.908 20.276 33.853L19.758 33.713Z" id="path1365" fill="url(#XMLID_38_)"/></g><path d="M0 48 0 0 48 0 48 48" id="_x3C_Slice_x3E_" fill="none" transform="translate(-12.8 0)"/></g><g id="text6294" font-family="DejaVu Sans" font-weight="400" font-size="24"><path d="M221.021 357.595 221.021 360.091C220.224 359.349 219.372 358.794 218.466 358.427 217.567 358.06 216.61 357.876 215.595 357.876 213.595 357.876 212.064 358.49 211.001 359.716 209.939 360.935 209.407 362.701 209.407 365.013 209.407 367.318 209.939 369.083 211.001 370.31 212.064 371.529 213.595 372.138 215.595 372.138 216.61 372.138 217.567 371.955 218.466 371.587 219.372 371.22 220.224 370.665 221.021 369.923L221.021 372.396C220.192 372.958 219.313 373.38 218.384 373.662 217.462 373.943 216.485 374.083 215.454 374.083 212.806 374.083 210.72 373.275 209.196 371.658 207.673 370.033 206.911 367.818 206.911 365.013 206.911 362.201 207.673 359.986 209.196 358.369 210.72 356.744 212.806 355.931 215.454 355.931 216.501 355.931 217.485 356.072 218.407 356.353 219.337 356.626 220.208 357.04 221.021 357.595" id="path4233"/><path d="M224.606 355.509 226.763 355.509 226.763 373.744 224.606 373.744 224.606 355.509" id="path4235"/><path d="M231.263 360.619 233.419 360.619 233.419 373.744 231.263 373.744 231.263 360.619M231.263 355.509 233.419 355.509 233.419 358.24 231.263 358.24 231.263 355.509" id="path4237"/><path d="M249.146 366.642 249.146 367.697 239.231 367.697C239.325 369.181 239.771 370.314 240.567 371.095 241.372 371.869 242.489 372.255 243.919 372.255 244.747 372.255 245.548 372.154 246.321 371.951 247.103 371.748 247.876 371.443 248.642 371.037L248.642 373.076C247.868 373.404 247.075 373.654 246.263 373.826 245.45 373.998 244.626 374.083 243.79 374.083 241.696 374.083 240.036 373.474 238.81 372.255 237.591 371.037 236.981 369.388 236.981 367.31 236.981 365.162 237.56 363.458 238.716 362.201 239.88 360.935 241.446 360.302 243.415 360.302 245.181 360.302 246.575 360.873 247.599 362.013 248.63 363.146 249.146 364.689 249.146 366.642M246.989 366.009C246.974 364.83 246.642 363.888 245.993 363.185 245.353 362.482 244.501 362.13 243.439 362.13 242.235 362.13 241.271 362.47 240.544 363.15 239.825 363.83 239.411 364.787 239.302 366.021L246.989 366.009" id="path4239"/><path d="M263.595 365.822 263.595 373.744 261.439 373.744 261.439 365.892C261.439 364.65 261.196 363.72 260.712 363.103 260.228 362.486 259.501 362.177 258.532 362.177 257.368 362.177 256.45 362.548 255.778 363.29 255.106 364.033 254.771 365.044 254.771 366.326L254.771 373.744 252.603 373.744 252.603 360.619 254.771 360.619 254.771 362.658C255.286 361.869 255.892 361.279 256.587 360.888 257.29 360.498 258.099 360.302 259.013 360.302 260.521 360.302 261.661 360.771 262.435 361.708 263.208 362.638 263.595 364.009 263.595 365.822" id="path4241"/><path d="M270.052 356.892 270.052 360.619 274.493 360.619 274.493 362.294 270.052 362.294 270.052 369.419C270.052 370.49 270.196 371.177 270.485 371.482 270.782 371.787 271.38 371.939 272.278 371.939L274.493 371.939 274.493 373.744 272.278 373.744C270.614 373.744 269.466 373.435 268.833 372.818 268.2 372.193 267.884 371.06 267.884 369.419L267.884 362.294 266.302 362.294 266.302 360.619 267.884 360.619 267.884 356.892 270.052 356.892" id="path4243"/><path d="M285.708 361.005 285.708 363.044C285.099 362.732 284.466 362.498 283.81 362.341 283.153 362.185 282.474 362.107 281.771 362.107 280.7 362.107 279.896 362.271 279.356 362.599 278.825 362.927 278.56 363.419 278.56 364.076 278.56 364.576 278.751 364.97 279.134 365.259 279.517 365.54 280.286 365.81 281.442 366.068L282.181 366.232C283.712 366.56 284.798 367.025 285.439 367.626 286.087 368.22 286.411 369.052 286.411 370.123 286.411 371.341 285.927 372.306 284.958 373.017 283.997 373.728 282.673 374.083 280.985 374.083 280.282 374.083 279.548 374.013 278.782 373.873 278.024 373.74 277.224 373.537 276.38 373.263L276.38 371.037C277.177 371.451 277.962 371.763 278.735 371.974 279.509 372.177 280.274 372.279 281.032 372.279 282.048 372.279 282.829 372.107 283.376 371.763 283.923 371.412 284.196 370.919 284.196 370.287 284.196 369.701 283.997 369.251 283.599 368.939 283.208 368.626 282.345 368.326 281.009 368.037L280.259 367.861C278.923 367.58 277.958 367.15 277.364 366.572 276.771 365.986 276.474 365.185 276.474 364.169 276.474 362.935 276.911 361.982 277.786 361.31 278.661 360.638 279.903 360.302 281.513 360.302 282.31 360.302 283.06 360.361 283.763 360.478 284.466 360.595 285.114 360.771 285.708 361.005" id="path4245"/></g><g id="g4201" transform="translate(26.5582 -78.0815)"><path d="M300.155 377.384C267.641 366.19 258.013 398.86 282.147 410.566 262.947 441.217 320.71 455.309 334.713 434.214 363.435 453.71 385.156 441.846 382.928 427.615 438.941 424.482 415.243 341.857 363.642 371.966 352.261 348.003 304.533 348.89 300.155 377.384Z" id="path4611" stroke="#646464" fill="#FFFFFF"/><g id="text6298" font-family="DejaVu Sans" font-weight="400" font-size="24"><path d="M295.708 390.771 298.075 390.771 298.075 408.267 295.708 408.267 295.708 390.771" id="path4248"/><path d="M313.602 400.345 313.602 408.267 311.446 408.267 311.446 400.416C311.446 399.174 311.204 398.244 310.719 397.627 310.235 397.009 309.508 396.701 308.54 396.701 307.376 396.701 306.458 397.072 305.786 397.814 305.114 398.556 304.778 399.568 304.778 400.849L304.778 408.267 302.61 408.267 302.61 395.142 304.778 395.142 304.778 397.181C305.294 396.392 305.899 395.802 306.594 395.412 307.298 395.021 308.106 394.826 309.02 394.826 310.528 394.826 311.669 395.295 312.442 396.232 313.216 397.162 313.602 398.533 313.602 400.345" id="path4250"/><path d="M320.059 391.416 320.059 395.142 324.501 395.142 324.501 396.818 320.059 396.818 320.059 403.943C320.059 405.013 320.204 405.701 320.493 406.006 320.79 406.31 321.387 406.463 322.286 406.463L324.501 406.463 324.501 408.267 322.286 408.267C320.622 408.267 319.473 407.959 318.841 407.342 318.208 406.717 317.891 405.584 317.891 403.943L317.891 396.818 316.309 396.818 316.309 395.142 317.891 395.142 317.891 391.416 320.059 391.416" id="path4252"/><path d="M338.575 401.166 338.575 402.22 328.661 402.22C328.755 403.705 329.2 404.838 329.997 405.619 330.801 406.392 331.919 406.779 333.348 406.779 334.176 406.779 334.977 406.677 335.751 406.474 336.532 406.271 337.305 405.967 338.071 405.56L338.071 407.599C337.298 407.927 336.505 408.177 335.692 408.349 334.88 408.521 334.055 408.607 333.219 408.607 331.126 408.607 329.466 407.998 328.239 406.779 327.02 405.56 326.411 403.912 326.411 401.834 326.411 399.685 326.989 397.982 328.145 396.724 329.309 395.459 330.876 394.826 332.844 394.826 334.61 394.826 336.005 395.396 337.028 396.537 338.059 397.67 338.575 399.213 338.575 401.166M336.419 400.533C336.403 399.353 336.071 398.412 335.423 397.709 334.782 397.006 333.93 396.654 332.868 396.654 331.665 396.654 330.7 396.994 329.973 397.674 329.255 398.353 328.841 399.31 328.731 400.545L336.419 400.533" id="path4254"/><path d="M349.719 397.158C349.477 397.017 349.212 396.916 348.923 396.853 348.641 396.783 348.329 396.748 347.985 396.748 346.766 396.748 345.829 397.146 345.173 397.943 344.524 398.732 344.2 399.869 344.2 401.353L344.2 408.267 342.032 408.267 342.032 395.142 344.2 395.142 344.2 397.181C344.653 396.384 345.243 395.795 345.969 395.412 346.696 395.021 347.579 394.826 348.618 394.826 348.766 394.826 348.93 394.838 349.11 394.861 349.29 394.877 349.489 394.904 349.708 394.943L349.719 397.158" id="path4256"/><path d="M362.493 400.345 362.493 408.267 360.337 408.267 360.337 400.416C360.337 399.174 360.094 398.244 359.61 397.627 359.126 397.009 358.399 396.701 357.43 396.701 356.266 396.701 355.348 397.072 354.676 397.814 354.005 398.556 353.669 399.568 353.669 400.849L353.669 408.267 351.501 408.267 351.501 395.142 353.669 395.142 353.669 397.181C354.184 396.392 354.79 395.802 355.485 395.412 356.188 395.021 356.997 394.826 357.911 394.826 359.419 394.826 360.559 395.295 361.333 396.232 362.106 397.162 362.493 398.533 362.493 400.345" id="path4258"/><path d="M378.044 401.166 378.044 402.22 368.13 402.22C368.223 403.705 368.669 404.838 369.466 405.619 370.27 406.392 371.387 406.779 372.817 406.779 373.645 406.779 374.446 406.677 375.219 406.474 376.001 406.271 376.774 405.967 377.54 405.56L377.54 407.599C376.766 407.927 375.973 408.177 375.161 408.349 374.348 408.521 373.524 408.607 372.688 408.607 370.594 408.607 368.934 407.998 367.708 406.779 366.489 405.56 365.88 403.912 365.88 401.834 365.88 399.685 366.458 397.982 367.614 396.724 368.778 395.459 370.344 394.826 372.313 394.826 374.079 394.826 375.473 395.396 376.497 396.537 377.528 397.67 378.044 399.213 378.044 401.166M375.887 400.533C375.872 399.353 375.54 398.412 374.891 397.709 374.251 397.006 373.399 396.654 372.337 396.654 371.133 396.654 370.169 396.994 369.442 397.674 368.723 398.353 368.309 399.31 368.2 400.545L375.887 400.533" id="path4260"/><path d="M383.716 391.416 383.716 395.142 388.157 395.142 388.157 396.818 383.716 396.818 383.716 403.943C383.716 405.013 383.86 405.701 384.149 406.006 384.446 406.31 385.044 406.463 385.942 406.463L388.157 406.463 388.157 408.267 385.942 408.267C384.278 408.267 383.13 407.959 382.497 407.342 381.864 406.717 381.548 405.584 381.548 403.943L381.548 396.818 379.966 396.818 379.966 395.142 381.548 395.142 381.548 391.416 383.716 391.416" id="path4262"/></g></g><g id="text6302" font-family="DejaVu Sans" font-weight="400" font-size="24"><path d="M522.104 398.379 522.104 400.687C521.206 400.258 520.358 399.937 519.561 399.726 518.764 399.515 517.995 399.41 517.253 399.41 515.964 399.41 514.967 399.66 514.264 400.16 513.569 400.66 513.221 401.371 513.221 402.293 513.221 403.066 513.452 403.652 513.913 404.051 514.382 404.441 515.264 404.758 516.561 405L517.991 405.293C519.757 405.629 521.057 406.222 521.893 407.074 522.737 407.918 523.159 409.051 523.159 410.472 523.159 412.168 522.589 413.453 521.448 414.328 520.315 415.203 518.651 415.64 516.456 415.64 515.628 415.64 514.745 415.547 513.807 415.359 512.878 415.172 511.913 414.894 510.913 414.527L510.913 412.09C511.874 412.629 512.815 413.035 513.737 413.308 514.659 413.582 515.565 413.719 516.456 413.719 517.807 413.719 518.85 413.453 519.585 412.922 520.319 412.39 520.686 411.633 520.686 410.648 520.686 409.789 520.421 409.117 519.889 408.633 519.366 408.148 518.503 407.785 517.299 407.543L515.858 407.262C514.092 406.91 512.815 406.359 512.026 405.609 511.237 404.859 510.842 403.816 510.842 402.48 510.842 400.933 511.385 399.715 512.471 398.824 513.565 397.933 515.069 397.488 516.983 397.488 517.803 397.488 518.639 397.562 519.491 397.711 520.342 397.859 521.214 398.082 522.104 398.379" id="path4265"/><path d="M537.983 408.199 537.983 409.254 528.069 409.254C528.163 410.738 528.608 411.871 529.405 412.652 530.21 413.426 531.327 413.812 532.757 413.812 533.585 413.812 534.385 413.711 535.159 413.508 535.94 413.304 536.714 413 537.479 412.594L537.479 414.633C536.706 414.961 535.913 415.211 535.1 415.383 534.288 415.554 533.464 415.64 532.628 415.64 530.534 415.64 528.874 415.031 527.647 413.812 526.428 412.594 525.819 410.945 525.819 408.867 525.819 406.719 526.397 405.015 527.553 403.758 528.717 402.492 530.284 401.859 532.253 401.859 534.018 401.859 535.413 402.43 536.436 403.57 537.467 404.703 537.983 406.246 537.983 408.199M535.827 407.566C535.811 406.387 535.479 405.445 534.831 404.742 534.19 404.039 533.339 403.687 532.276 403.687 531.073 403.687 530.108 404.027 529.382 404.707 528.663 405.387 528.249 406.344 528.139 407.578L535.827 407.566" id="path4267"/><path d="M549.128 404.191C548.885 404.051 548.62 403.949 548.331 403.887 548.049 403.816 547.737 403.781 547.393 403.781 546.174 403.781 545.237 404.179 544.581 404.976 543.932 405.765 543.608 406.902 543.608 408.387L543.608 415.301 541.44 415.301 541.44 402.176 543.608 402.176 543.608 404.215C544.061 403.418 544.651 402.828 545.378 402.445 546.104 402.055 546.987 401.859 548.026 401.859 548.174 401.859 548.339 401.871 548.518 401.894 548.698 401.91 548.897 401.937 549.116 401.976L549.128 404.191" id="path4269"/><path d="M549.866 402.176 552.151 402.176 556.253 413.191 560.354 402.176 562.639 402.176 557.718 415.301 554.788 415.301 549.866 402.176" id="path4271"/><path d="M576.843 408.199 576.843 409.254 566.928 409.254C567.022 410.738 567.467 411.871 568.264 412.652 569.069 413.426 570.186 413.812 571.616 413.812 572.444 413.812 573.245 413.711 574.018 413.508 574.799 413.304 575.573 413 576.339 412.594L576.339 414.633C575.565 414.961 574.772 415.211 573.96 415.383 573.147 415.554 572.323 415.64 571.487 415.64 569.393 415.64 567.733 415.031 566.507 413.812 565.288 412.594 564.678 410.945 564.678 408.867 564.678 406.719 565.257 405.015 566.413 403.758 567.577 402.492 569.143 401.859 571.112 401.859 572.878 401.859 574.272 402.43 575.296 403.57 576.327 404.703 576.842 406.246 576.843 408.199M574.686 407.566C574.671 406.387 574.339 405.445 573.69 404.742 573.049 404.039 572.198 403.687 571.135 403.687 569.932 403.687 568.967 404.027 568.241 404.707 567.522 405.387 567.108 406.344 566.999 407.578L574.686 407.566" id="path4273"/><path d="M587.987 404.191C587.745 404.051 587.479 403.949 587.19 403.887 586.909 403.816 586.596 403.781 586.253 403.781 585.034 403.781 584.096 404.179 583.44 404.976 582.792 405.765 582.467 406.902 582.468 408.387L582.468 415.301 580.299 415.301 580.299 402.176 582.468 402.176 582.468 404.215C582.921 403.418 583.51 402.828 584.237 402.445 584.964 402.055 585.846 401.859 586.885 401.859 587.034 401.859 587.198 401.871 587.378 401.894 587.557 401.91 587.757 401.937 587.975 401.976L587.987 404.191" id="path4275"/></g><path d="M211.425 321.608 289.206 321.608" id="path4208" stroke="#000000" fill="none"/><path d="M179.807 263.635 226.274 202.015" id="path4210" stroke="#000000" fill="none" transform="translate(118.491 171.608)"/><path d="M287.024 213.453 333.491 275.072" id="path4210-5" stroke="#000000" fill="none"/></g><g id="layer2" transform="matrix(1 0 0 1 0 97.4383)"><g id="g3420" transform="matrix(0.800147 0 0 0.800147 41.823 129.668)"><rect x="52.5279" y="42.6534" width="70.4581" height="50.0026" id="rect3416" fill="#F2F2F2" transform="matrix(1 0 0 1 0 -297.438)"/><path d="M43.6748-182.507 49.9329-195.005 87.4168-195.005 124.901-195.005 131.159-182.507 137.417-170.01 87.4168-170.01 37.4168-170.01 43.6748-182.507ZM49.9237-229.374 49.9237-257.494 87.4168-257.494 124.91-257.494 124.91-229.374 124.91-201.254 87.4168-201.254 49.9237-201.254 49.9237-229.374ZM118.661-229.374 118.661-251.245 87.4168-251.245 56.1725-251.245 56.1725-229.374 56.1725-207.503 87.4168-207.503 118.661-207.503 118.661-229.374Z" id="path3364" fill="#1A1A1A"/></g><g id="g3424" transform="matrix(0.7 0 0 0.7 5.99172 114.793)"><rect x="56.0459" y="-134.64" ry="0" width="46.4286" height="83.8342" id="rect3414" fill="#F2F2F2"/><g id="g3389" transform="matrix(0.0141723 0 0 -0.0141723 50.5724 -38.6894)"><path d="M456 7054C308 7018 147 6891 83 6759 15 6617 20 6891 20 3547 20 1402 23 506 31 468 71 275 228 102 422 39L495 15 1960 15 3425 15 3497 38C3583 65 3704 143 3760 208 3812 269 3865 370 3887 451 3904 511 3905 683 3905 3550L3905 6585 3878 6665C3811 6862 3652 7009 3458 7055 3366 7077 546 7076 456 7054ZM2368 6828C2384 6812 2383 6805 2364 6786 2351 6772 2300 6770 1965 6770 1754 6770 1575 6773 1566 6776 1550 6782 1544 6821 1557 6833 1560 6837 1742 6840 1960 6840 2255 6840 2359 6837 2368 6828ZM3435 6525 3460 6501 3460 3733C3459 1573 3457 962 3447 949 3440 940 3425 928 3413 922 3397 913 3028 910 1955 910L518 910 489 939 460 968 460 3725C460 5801 463 6487 472 6503 478 6515 490 6530 499 6537 511 6547 841 6549 1963 6550L3411 6550 3435 6525ZM2050 650C2072 639 2102 611 2117 588 2156 529 2157 441 2118 383 2042 268 1866 275 1798 395 1770 445 1769 520 1795 574 1836 660 1959 696 2050 650Z" id="path3391"/></g></g><g id="g3429" transform="matrix(0.6 0 0 0.6 54.2521 116.432)"><rect x="19.9505" y="320.95" width="111.117" height="75.5089" id="rect3418" fill="#F2F2F2" transform="matrix(1 0 0 1 0 -297.438)"/><path d="M43.0717 119.489C42.6187 119.036 42.248 118.35 42.248 117.964 42.248 117.578 42.6187 116.892 43.0717 116.439L43.8953 115.615 53.1388 115.615 62.3822 115.615 62.3822 108.904 62.3822 102.192 40.8905 102.192 19.3987 102.192 18.575 101.368 17.7514 100.545 17.7514 61.4727C17.7514 23.5026 17.7694 22.3784 18.3928 21.6085L19.0343 20.8163 75.6373 20.8163 132.24 20.8163 132.882 21.6085C133.505 22.3784 133.523 23.5046 133.523 61.6009L133.523 100.801 132.639 101.497C131.765 102.184 131.497 102.192 110.324 102.192L88.8923 102.192 88.8923 108.904 88.8923 115.615 98.0752 115.615C106.857 115.615 107.297 115.645 108.142 116.31 109.33 117.245 109.33 118.683 108.142 119.617 107.262 120.31 107.12 120.313 75.5768 120.313L43.8953 120.313 43.0717 119.489ZM129.161 61.4203 129.161 25.3465 75.6373 25.3465 22.1138 25.3465 22.1138 61.4203 22.1138 97.4941 75.6373 97.4941 129.161 97.4941 129.161 61.4203ZM149.425 119.988C149.035 119.828 148.394 119.287 147.999 118.786L147.282 117.873 147.282 70.4512C147.282 37.0687 147.389 22.7924 147.646 22.2298 147.846 21.7902 148.436 21.1791 148.956 20.8717 149.807 20.3687 151.734 20.3129 168.255 20.3129 184.775 20.3129 186.702 20.3687 187.554 20.8717 188.074 21.1791 188.663 21.7902 188.864 22.2298 189.12 22.7925 189.228 37.08 189.228 70.4912L189.228 117.953 188.249 119.049 187.27 120.145 168.702 120.212C158.489 120.249 149.815 120.148 149.425 119.988ZM169.612 94.3215C170.065 93.8684 170.436 93.2848 170.436 93.0244 170.436 92.1801 169.076 90.7827 168.255 90.7827 167.433 90.7827 166.074 92.1801 166.074 93.0244 166.074 93.667 167.594 95.1451 168.255 95.1451 168.548 95.1451 169.159 94.7745 169.612 94.3215ZM170.718 85.9542C171.607 84.1236 170.301 82.0579 168.255 82.0579 165.288 82.0579 164.432 86.098 167.156 87.2434 168.554 87.8311 170.073 87.2811 170.718 85.9542ZM185.872 52.3599 185.872 48.8364 168.255 48.8364 150.637 48.8364 150.637 52.3599 150.637 55.8834 168.255 55.8834 185.872 55.8834 185.872 52.3599ZM185.872 38.0982 185.872 34.4069 168.255 34.4069 150.637 34.4069 150.637 38.0982 150.637 41.7894 168.255 41.7894 185.872 41.7894 185.872 38.0982Z" id="path3410"/></g></g></svg>